<svg width="20" height="20" viewBox="0 0 20 20" fill="none" xmlns="http://www.w3.org/2000/svg">
<path d="M10 2.35418C10.7329 1.52375 11.8053 1 13 1C15.2091 1 17 2.79086 17 5C17 7.20914 15.2091 9 13 9C11.8053 9 10.7329 8.47624 10 7.64582M13 19H1V18C1 14.6863 3.68629 12 7 12C10.3137 12 13 14.6863 13 18V19ZM13 19H19V18C19 14.6863 16.3137 12 13 12C11.9071 12 10.8825 12.2922 10 12.8027M11 5C11 7.20914 9.20914 9 7 9C4.79086 9 3 7.20914 3 5C3 2.79086 4.79086 1 7 1C9.20914 1 11 2.79086 11 5Z" stroke="#9CA3AF" stroke-width="2" stroke-linecap="round" stroke-linejoin="round"/>
</svg>
